<?xml version="1.0" standalone="no"?>
<!DOCTYPE svg PUBLIC "-//W3C//DTD SVG 20010904//EN"
 "http://www.w3.org/TR/2001/REC-SVG-20010904/DTD/svg10.dtd">
<svg version="1.0" xmlns="http://www.w3.org/2000/svg"
 width="512.000000pt" height="512.000000pt" viewBox="0 0 512.000000 512.000000"
 preserveAspectRatio="xMidYMid meet">
<metadata>
Created by potrace 1.11, written by Peter Selinger 2001-2013
</metadata>
<g transform="translate(0.000000,512.000000) scale(0.100000,-0.100000)"
fill="#000000" stroke="none">
<path d="M3260 4499 c-19 -4 -60 -10 -90 -14 -60 -7 -83 -10 -150 -21 -25 -4
-55 -8 -67 -10 -12 -1 -25 -4 -30 -7 -4 -3 -8 -794 -8 -1758 l0 -1753 70 -25
c39 -14 75 -29 80 -32 6 -3 31 -12 58 -19 26 -7 47 -16 47 -21 0 -4 10 -6 23
-3 12 3 33 7 47 9 27 4 222 32 280 41 78 10 70 -68 71 732 0 394 2 731 4 747
14 130 59 259 128 361 111 166 267 261 446 270 l84 5 41 -44 c43 -47 100 -149
104 -187 0 -3 6 -18 12 -34 6 -16 13 -45 16 -65 3 -20 8 -47 12 -61 3 -14 7
-344 9 -735 2 -390 7 -713 11 -717 4 -4 63 -28 132 -53 140 -52 124 -52 393
-9 l38 6 -4 776 c-1 428 -5 786 -9 797 -3 11 -9 40 -13 65 -10 65 -68 210
-108 273 -53 82 -142 164 -222 202 -59 29 -198 81 -370 139 -22 8 -58 17 -80
21 -22 4 -51 9 -65 12 -14 3 -68 5 -120 6 -162 1 -249 -19 -376 -87 l-64 -34
0 569 c0 312 -4 570 -8 573 -5 3 -19 7 -33 10 -13 2 -64 21 -114 41 -101 40
-125 45 -175 34z"/>
<path d="M2569 4386 c-2 -2 -33 -7 -69 -11 -36 -3 -81 -10 -100 -15 -19 -4
-62 -11 -95 -14 -55 -6 -107 -14 -145 -21 -8 -2 -26 -4 -40 -4 l-25 -1 0
-1552 0 -1553 -50 -7 c-28 -4 -79 -10 -115 -13 -82 -8 -121 -12 -190 -20 -30
-3 -71 -8 -90 -10 -76 -7 -156 -16 -180 -20 -14 -3 -56 -8 -95 -11 -38 -3 -81
-7 -95 -9 -105 -11 -159 -17 -182 -21 -16 -2 -54 -7 -85 -10 -32 -2 -71 -7
-88 -9 -16 -2 -57 -6 -90 -9 -33 -3 -73 -8 -90 -10 -33 -6 -129 -17 -184 -21
-20 -2 -36 -4 -36 -5 0 -1 -22 -3 -50 -5 -27 -1 -68 -5 -90 -8 -74 -10 -184
-23 -275 -31 l-25 -2 -3 -241 -2 -240 87 -32 c49 -18 105 -39 125 -48 39 -17
107 -14 243 11 17 3 51 7 77 10 26 3 58 8 70 11 13 3 43 7 68 10 25 2 56 6 70
9 14 2 46 7 71 10 25 4 59 9 75 11 76 13 92 15 140 20 28 3 59 7 70 9 50 9
178 28 279 41 22 2 49 7 60 9 19 4 61 10 150 21 22 3 49 7 61 9 12 2 45 7 74
11 29 4 62 8 73 11 11 2 43 6 71 9 61 7 103 13 176 25 30 5 75 12 100 15 49 6
115 16 141 20 9 2 40 6 69 10 29 4 61 8 70 10 9 2 41 7 71 10 30 4 63 9 74 10
74 11 113 16 130 20 11 2 32 4 48 4 l27 1 0 1766 c0 1135 -3 1763 -10 1759 -5
-3 -28 3 -52 15 -23 11 -49 20 -58 20 -9 0 -20 3 -23 6 -4 4 -28 15 -54 24
-27 9 -55 20 -64 24 -8 4 -17 5 -20 2z"/>
</g>
</svg>
